HIERARCHY
ROOT SimulationBone
{
	OFFSET 0.000000 0.000000 0.000000
	CHANNELS 6 Xposition Yposition Zposition Zrotation Yrotation Xrotation 
	JOINT Hips
	{
		OFFSET 0.000000 0.000000 0.000000
		CHANNELS 6 Xposition Yposition Zposition Zrotation Yrotation Xrotation 
		JOINT RightUpLeg
		{
			OFFSET 0.103461 1.857818 10.548512
			CHANNELS 3 Zrotation Yrotation Xrotation
			JOINT RightLeg
			{
				OFFSET 43.500000 -0.000019 0.000004
				CHANNELS 3 Zrotation Yrotation Xrotation
				JOINT RightFoot
				{
					OFFSET 42.372200 0.000011 0.000000
					CHANNELS 3 Zrotation Yrotation Xrotation
					JOINT RightToe
					{
						OFFSET 17.300009 0.000002 0.000004
						CHANNELS 3 Zrotation Yrotation Xrotation
						End Site
						{
							OFFSET 0.000000 0.000000 0.000000
						}
					}
				}
			}
		}
		JOINT LeftUpLeg
		{
			OFFSET 0.103461 1.857838 -10.548504
			CHANNELS 3 Zrotation Yrotation Xrotation
			JOINT LeftLeg
			{
				OFFSET 43.500042 -0.000038 0.000017
				CHANNELS 3 Zrotation Yrotation Xrotation
				JOINT LeftFoot
				{
					OFFSET 42.372253 -0.000008 0.000015
					CHANNELS 3 Zrotation Yrotation Xrotation
					JOINT LeftToe
					{
						OFFSET 17.299995 -0.000004 0.000004
						CHANNELS 3 Zrotation Yrotation Xrotation
						End Site
						{
							OFFSET 0.000000 0.000000 0.000000
						}
					}
				}
			}
		}
		JOINT Spine
		{
			OFFSET 6.901970 -2.603733 -0.000002
			CHANNELS 3 Zrotation Yrotation Xrotation
			JOINT Spine1
			{
				OFFSET 12.588097 0.000016 0.000005
				CHANNELS 3 Zrotation Yrotation Xrotation
				JOINT Spine2
				{
					OFFSET 12.343206 -0.000008 -0.000008
					CHANNELS 3 Zrotation Yrotation Xrotation
					JOINT Neck
					{
						OFFSET 25.832890 -0.000023 0.000008
						CHANNELS 3 Zrotation Yrotation Xrotation
						JOINT Head
						{
							OFFSET 11.766625 0.000019 -0.000006
							CHANNELS 3 Zrotation Yrotation Xrotation
							End Site
							{
								OFFSET 0.000000 0.000000 0.000000
							}
						}
					}
					JOINT RightShoulder
					{
						OFFSET 19.745903 -1.480385 6.000111
						CHANNELS 3 Zrotation Yrotation Xrotation
						JOINT RightArm
						{
							OFFSET 11.284122 -0.000021 -0.000025
							CHANNELS 3 Zrotation Yrotation Xrotation
							JOINT RightForeArm
							{
								OFFSET 33.000057 -0.000001 0.000032
								CHANNELS 3 Zrotation Yrotation Xrotation
								JOINT RightHand
								{
									OFFSET 25.200003 0.000023 0.000006
									CHANNELS 3 Zrotation Yrotation Xrotation
									End Site
									{
										OFFSET 0.000000 0.000000 0.000000
									}
								}
							}
						}
					}
					JOINT LeftShoulder
					{
						OFFSET 19.746098 -1.480366 -6.000072
						CHANNELS 3 Zrotation Yrotation Xrotation
						JOINT LeftArm
						{
							OFFSET 11.284136 -0.000004 -0.000006
							CHANNELS 3 Zrotation Yrotation Xrotation
							JOINT LeftForeArm
							{
								OFFSET 33.000092 0.000029 0.000002
								CHANNELS 3 Zrotation Yrotation Xrotation
								JOINT LeftHand
								{
									OFFSET 25.199776 0.000140 0.000420
									CHANNELS 3 Zrotation Yrotation Xrotation
									End Site
									{
										OFFSET 0.000000 0.000000 0.000000
									}
								}
							}
						}
					}
				}
			}
		}
	}
}
MOTION
Frames: 11
Frame Time: 0.033333
-248.090461 0.000000 434.507328 0.000000 262.107789 0.000000 -3.907423 88.550133 -0.010129 90.740888 1.808947 -177.699980 154.207667 2.892005 178.399255 -33.856350 0.174517 -2.178304 83.544886 1.103039 -1.917233 21.454558 0.003100 0.000015 167.433645 8.059206 -171.407122 -33.129870 1.305917 -8.517359 91.240727 6.469345 4.818048 21.454550 -0.003078 0.000001 10.027128 1.721320 0.919605 10.074877 3.356011 1.986514 9.756394 3.367829 1.966182 21.450740 -7.511230 13.483830 -19.549555 -16.739349 21.180811 178.473417 -71.761198 0.214421 -22.684805 56.449324 20.347373 -53.068302 -19.857892 2.209227 1.572720 -7.056597 27.249149 176.783204 82.997952 -1.664896 -14.272821 -52.276806 -52.035018 -37.403762 14.511550 -1.360279 -1.133368 14.036239 14.594460 
-248.289166 0.000000 433.894211 0.000000 266.824026 0.000000 -4.212052 88.938629 -0.272123 90.235980 1.317352 -177.041539 154.302962 2.725493 173.019401 -34.142022 0.561695 -6.344329 84.432066 3.863078 -2.626822 21.454558 0.003112 0.000018 168.391566 8.503690 -171.164677 -31.592511 2.062225 -5.591922 90.805077 4.624481 5.834340 21.454553 -0.003098 -0.000001 10.024617 1.847611 0.931319 10.073277 3.607130 2.021013 9.754687 3.619119 1.999175 20.756294 -7.371249 13.475551 -19.606145 -17.049887 21.229473 179.024804 -71.954813 -0.356732 -19.025229 57.107174 23.127200 -54.433930 -19.542501 2.236020 1.443488 -7.107940 27.295574 170.341653 83.420399 -8.161093 -14.852132 -50.026932 -52.343025 -34.045792 13.653660 -1.226608 -3.075189 5.869376 10.404017 
-248.326040 0.000000 433.346696 0.000000 -88.494656 0.000000 -4.304251 89.246117 -0.453672 89.977630 0.975917 -175.318845 153.806503 1.991498 170.226428 -37.662630 1.392402 -4.914351 84.003971 2.901539 -2.367712 21.454557 0.003101 0.000016 169.991961 8.712709 -170.259595 -29.990589 2.463262 -2.366389 90.559463 2.609694 7.095337 21.454553 -0.003091 -0.000000 9.906260 1.990540 0.689097 9.831901 3.915317 1.545836 9.513099 3.924441 1.522125 20.434635 -6.481425 13.318120 -19.245900 -17.242620 21.016282 177.723817 -72.306520 0.973380 -14.768114 56.783748 27.435659 -54.256711 -19.266582 2.210988 1.538742 -6.618793 26.678577 173.209690 83.906927 -5.250608 -16.367676 -48.287115 -52.357420 -31.422681 12.870811 -1.120602 -4.794457 -0.449175 0.929390 
-248.150348 0.000000 432.861804 0.000000 -83.869706 0.000000 -4.275805 89.439949 -0.585604 89.855786 0.842539 -173.833536 153.174519 0.478199 170.333798 -42.201830 1.980590 -2.324574 83.253900 0.937978 -2.987405 21.454560 0.003107 0.000018 171.686162 8.885412 -168.056436 -28.641744 2.474554 -0.024433 90.260540 1.205444 8.254146 21.454555 -0.003096 -0.000000 9.721909 2.096405 0.535596 9.459634 4.142001 1.241689 9.140713 4.149292 1.216595 20.144963 -5.343219 12.923669 -18.611996 -17.276571 20.442956 175.839696 -72.566614 2.902917 -11.794606 55.781342 31.574926 -52.148447 -19.013963 2.120416 1.423480 -6.350068 24.937048 179.574033 84.407177 1.182937 -17.067579 -47.388645 -52.495512 -29.794853 12.553990 -1.068296 -4.718104 -2.964139 -6.673931 
-247.724816 0.000000 432.432465 0.000000 -79.318692 0.000000 -4.145964 89.488762 -0.668642 89.876889 0.902378 -173.458099 152.814759 -2.071401 171.483005 -46.097613 1.596811 -1.715758 83.329722 0.211934 -4.417792 21.454560 0.003105 0.000017 173.267460 9.020598 -165.159643 -27.620296 2.216958 1.207028 90.010876 0.534234 9.174196 21.454551 -0.003101 -0.000001 9.556052 2.125198 0.605106 9.130628 4.196057 1.376976 8.811700 4.204156 1.351564 19.639145 -4.682501 12.468667 -18.035698 -16.975481 19.693356 175.070002 -72.622123 3.691841 -10.436991 54.739209 34.100215 -48.610456 -18.755674 1.985413 1.437369 -6.518506 22.396028 -178.280614 84.832671 3.353696 -16.669615 -47.159519 -52.193772 -28.858482 12.524680 -1.048965 -3.070194 -3.179802 -9.506632 
-247.040822 0.000000 432.041155 0.000000 -74.855218 0.000000 -3.949679 89.635147 -0.653609 89.874686 0.631857 -174.115621 152.967537 -4.935387 171.803013 -48.131523 0.923214 -2.639952 82.518814 0.873481 -4.295287 21.454557 0.003097 0.000017 174.860424 9.446907 -162.719176 -26.328655 1.964056 2.014102 89.551915 0.160589 9.994434 21.454553 -0.003095 0.000001 9.415993 1.993925 0.778811 8.853616 3.922478 1.708881 8.534857 3.932576 1.685119 19.010348 -4.762396 12.166621 -17.727590 -16.429670 19.074871 175.758703 -72.477910 2.988336 -9.795093 54.170162 34.348639 -44.621803 -18.619700 1.852608 2.330468 -6.532201 20.678821 178.488184 85.110038 0.102086 -16.389442 -47.214775 -51.106528 -28.423930 12.519370 -1.040748 -1.238965 -2.691768 -9.638402 
-246.088317 0.000000 431.693235 0.000000 -70.489110 0.000000 -3.715443 89.671600 -0.504590 89.896485 0.553645 -175.176568 153.513720 -8.464711 171.222488 -48.175141 0.266592 -3.150081 82.110137 1.097803 -4.871118 21.454557 0.003108 0.000017 176.381057 9.695203 -161.112701 -25.240983 1.929525 2.953751 89.202434 -0.299983 10.900345 21.454555 -0.003099 -0.000002 9.282252 1.851860 0.939794 8.587947 3.628932 2.015377 8.269367 3.640898 1.993402 18.502117 -5.240645 12.074809 -17.644368 -15.983792 18.767599 177.169424 -72.158531 1.546540 -8.856437 54.102239 32.836681 -40.949047 -18.771759 1.757272 4.147411 -6.501564 20.742748 174.810892 85.164222 -3.601519 -17.157550 -47.195282 -49.433685 -28.530626 12.699872 -1.054314 -0.318145 -2.509634 -10.432123 
-244.865808 0.000000 431.398072 0.000000 -66.226814 0.000000 -3.492776 89.505661 -0.234616 89.965320 0.812026 -175.978883 153.896907 -12.077500 169.884754 -46.638338 -0.116002 -3.227395 82.542659 1.150434 -4.987958 21.454557 0.003109 0.000017 177.899408 9.681194 -159.936420 -24.627458 2.051049 4.150078 89.132603 -0.924158 12.054616 21.454551 -0.003092 0.000001 9.144958 1.766142 0.995094 8.312824 3.456320 2.115351 7.994329 3.468894 2.094417 18.179056 -5.652197 12.079540 -17.606857 -15.766372 18.664281 178.526296 -71.740967 0.160502 -7.508375 54.200789 30.682688 -37.797621 -19.060246 1.692573 6.092072 -7.463261 20.941889 174.711540 85.017755 -3.705463 -18.935342 -47.052500 -47.160636 -29.301491 13.280600 -1.105896 -0.159435 -2.649407 -12.750410 
-243.381442 0.000000 431.141574 0.000000 -62.076043 0.000000 -3.332586 89.331757 0.116365 90.056313 0.933907 -176.193303 154.035273 -14.950202 167.826736 -43.952148 -0.224039 -2.824911 82.382887 0.779767 -5.359088 21.454555 0.003107 0.000018 179.769828 9.741806 -158.642017 -23.875230 2.151742 5.511598 88.988882 -1.609210 13.496161 21.454551 -0.003091 -0.000001 9.021707 1.667487 0.913678 8.061578 3.267370 1.941971 7.743113 3.278898 1.922187 17.850129 -5.880191 12.000444 -17.448282 -15.539652 18.446114 179.357817 -71.323690 -0.686770 -6.305265 54.081694 28.876609 -35.037948 -19.119021 1.628731 7.587842 -9.525147 18.581016 178.575282 84.759813 0.182684 -21.233583 -46.987081 -44.064399 -30.760023 14.143268 -1.189490 -0.043466 -2.273839 -14.878870 
-241.654438 0.000000 430.912452 0.000000 -58.040957 0.000000 -3.217384 89.026459 0.449021 90.212886 1.141929 -175.866350 153.668601 -16.831295 165.531342 -40.943040 -0.046037 -3.030178 82.141419 0.912117 -5.363696 21.454557 0.003111 0.000018 -178.073987 9.680602 -156.975560 -23.210738 2.107041 6.874042 88.819063 -2.233735 15.279485 21.454553 -0.003095 0.000000 8.934689 1.606386 0.780570 7.882522 3.155988 1.669236 7.564053 3.165869 1.650124 17.314490 -6.070317 11.702300 -17.146049 -15.058141 17.864151 179.513395 -70.999953 -0.840566 -5.532310 53.543540 27.987356 -32.751765 -18.802882 1.556429 8.826673 -11.161216 13.519720 -175.218121 84.413557 6.436690 -23.447428 -47.044680 -40.405647 -32.746266 15.071150 -1.290043 0.251636 -0.409407 -15.376091 
-239.709752 0.000000 430.696672 0.000000 -54.118492 0.000000 -3.158079 88.678596 0.724804 90.304079 1.225057 -175.239116 152.988287 -17.410516 163.389504 -37.853759 0.336754 -3.558581 82.205254 1.376673 -4.947557 21.454558 0.003108 0.000018 -175.707600 9.603392 -155.257290 -22.349528 1.958170 8.326377 88.391582 -2.825707 17.406426 21.454553 -0.003091 0.000002 8.868023 1.532109 0.666251 7.744810 3.016276 1.433879 7.426331 3.024744 1.415627 16.509604 -6.360820 11.157497 -16.725349 -14.239438 16.861919 179.304473 -70.862222 -0.622644 -5.155306 52.746962 27.853844 -31.363829 -18.340330 1.497140 9.722691 -10.717427 9.171917 -169.130333 83.965544 12.578362 -25.113733 -47.280612 -36.719022 -35.019524 16.028630 -1.402117 0.464282 3.343868 -14.243102 
